<?xml version="1.0" encoding="UTF-8"?>
<!-- Generator: Adobe Illustrator 24.2.1, SVG Export Plug-In . SVG Version: 6.00 Build 0)  -->
<svg version="1.1" id="Layer_1" xmlns="http://www.w3.org/2000/svg" xmlns:xlink="http://www.w3.org/1999/xlink" x="0px" y="0px" viewBox="0 0 296.18 80.89" style="enable-background:new 0 0 296.18 80.89;" xml:space="preserve">
<style type="text/css">
	.st0{fill:#1D1D1B;}
	.st1{fill:#8E8E8D;}
	.st2{fill:#FFFFFF;}
	.st3{fill:#E09026;}
</style>
<g>
	<g>
		<path class="st0" d="M34.05,38.92c0.89,0,1.72,0.17,2.49,0.5c0.77,0.33,1.44,0.79,2.03,1.36c0.59,0.58,1.05,1.25,1.38,2.02    c0.33,0.77,0.5,1.6,0.5,2.49v6.39h-2.53v-6.39c0-0.53-0.1-1.03-0.3-1.49c-0.2-0.46-0.47-0.87-0.82-1.22    c-0.35-0.35-0.76-0.63-1.24-0.82c-0.47-0.2-0.98-0.3-1.51-0.3c-0.53,0-1.03,0.1-1.49,0.3c-0.46,0.2-0.87,0.47-1.22,0.82    c-0.35,0.35-0.63,0.76-0.82,1.22c-0.2,0.46-0.3,0.96-0.3,1.49v6.39h-2.53v-6.39c0-0.53-0.1-1.03-0.3-1.49    c-0.2-0.46-0.47-0.87-0.82-1.22c-0.35-0.35-0.76-0.63-1.24-0.82c-0.47-0.2-0.98-0.3-1.51-0.3c-0.53,0-1.03,0.1-1.49,0.3    c-0.46,0.2-0.87,0.47-1.22,0.82s-0.63,0.76-0.82,1.22c-0.2,0.46-0.3,0.96-0.3,1.49v6.39h-2.53v-6.39c0-0.89,0.17-1.72,0.5-2.49    c0.33-0.77,0.79-1.44,1.36-2.02c0.58-0.58,1.25-1.03,2.03-1.36c0.78-0.33,1.6-0.5,2.47-0.5c1.06,0,2.03,0.23,2.91,0.7    c0.88,0.46,1.61,1.09,2.2,1.89c0.59-0.8,1.33-1.43,2.22-1.89C32.04,39.15,33.01,38.92,34.05,38.92z"/>
		<path class="st0" d="M47.72,38.92c0.89,0,1.72,0.17,2.49,0.5c0.77,0.33,1.44,0.79,2.02,1.36c0.58,0.58,1.03,1.25,1.36,2.02    c0.33,0.77,0.5,1.6,0.5,2.49v6.39h-6.37c-0.87,0-1.7-0.17-2.47-0.5c-0.78-0.33-1.46-0.79-2.05-1.38    c-0.59-0.59-1.05-1.27-1.38-2.05c-0.33-0.78-0.5-1.6-0.5-2.47c0-0.89,0.17-1.72,0.5-2.49c0.33-0.77,0.79-1.44,1.38-2.02    c0.59-0.58,1.27-1.03,2.05-1.36C46.02,39.08,46.85,38.92,47.72,38.92z M51.55,49.15v-3.86c0-0.53-0.1-1.03-0.3-1.49    c-0.2-0.46-0.47-0.87-0.82-1.22c-0.35-0.35-0.76-0.63-1.22-0.82c-0.46-0.2-0.96-0.3-1.49-0.3c-0.53,0-1.03,0.1-1.51,0.3    c-0.47,0.2-0.89,0.47-1.24,0.82c-0.35,0.35-0.63,0.76-0.82,1.22c-0.2,0.46-0.3,0.96-0.3,1.49c0,0.53,0.1,1.03,0.3,1.51    c0.2,0.47,0.47,0.89,0.82,1.24c0.35,0.35,0.76,0.63,1.24,0.82c0.47,0.2,0.97,0.3,1.51,0.3H51.55z"/>
		<path class="st0" d="M62.49,38.92v2.53h-1.28c-0.53,0-1.03,0.1-1.49,0.3c-0.46,0.2-0.87,0.47-1.22,0.82    c-0.35,0.35-0.63,0.76-0.82,1.22c-0.2,0.46-0.3,0.96-0.3,1.49v6.39h-2.56v-6.39c0-0.89,0.17-1.72,0.5-2.49    c0.33-0.77,0.79-1.44,1.38-2.02c0.59-0.58,1.27-1.03,2.05-1.36c0.78-0.33,1.6-0.5,2.47-0.5H62.49z"/>
		<path class="st0" d="M65.76,38.92v12.76h-2.5V38.92H65.76z"/>
		<path class="st0" d="M66.59,45.34c0-0.89,0.17-1.72,0.5-2.49c0.33-0.77,0.79-1.44,1.36-2.02c0.58-0.58,1.25-1.03,2.03-1.36    c0.78-0.33,1.6-0.5,2.47-0.5c0.89,0,1.72,0.17,2.49,0.5c0.77,0.33,1.44,0.79,2.03,1.36c0.59,0.58,1.05,1.25,1.38,2.02    c0.33,0.77,0.5,1.6,0.5,2.49c0,0.87-0.17,1.7-0.5,2.47c-0.33,0.78-0.79,1.46-1.38,2.05c-0.59,0.59-1.26,1.05-2.03,1.38    c-0.77,0.33-1.6,0.5-2.49,0.5c-0.87,0-1.7-0.17-2.47-0.5c-0.78-0.33-1.45-0.79-2.03-1.38c-0.58-0.59-1.03-1.27-1.36-2.05    C66.75,47.04,66.59,46.21,66.59,45.34z M69.09,45.34c0,0.53,0.1,1.03,0.3,1.51c0.2,0.47,0.47,0.89,0.82,1.24s0.76,0.63,1.24,0.82    c0.47,0.2,0.97,0.3,1.51,0.3c0.53,0,1.03-0.1,1.51-0.3c0.47-0.2,0.89-0.47,1.24-0.82c0.35-0.35,0.63-0.76,0.82-1.24    c0.2-0.47,0.3-0.98,0.3-1.51c0-0.53-0.1-1.03-0.3-1.49c-0.2-0.46-0.47-0.87-0.82-1.22c-0.35-0.35-0.76-0.63-1.24-0.82    c-0.47-0.2-0.98-0.3-1.51-0.3c-0.53,0-1.03,0.1-1.51,0.3c-0.47,0.2-0.89,0.47-1.24,0.82c-0.35,0.35-0.63,0.76-0.82,1.22    C69.19,44.31,69.09,44.81,69.09,45.34z"/>
		<path class="st0" d="M82.75,33.8v17.87h-2.53V33.8H82.75z"/>
		<path class="st0" d="M90.06,38.92c0.89,0,1.72,0.17,2.49,0.5c0.77,0.33,1.44,0.79,2.02,1.36c0.58,0.58,1.03,1.25,1.36,2.02    c0.33,0.77,0.5,1.6,0.5,2.49v6.39h-6.37c-0.87,0-1.7-0.17-2.47-0.5c-0.78-0.33-1.46-0.79-2.05-1.38    c-0.59-0.59-1.05-1.27-1.38-2.05c-0.33-0.78-0.5-1.6-0.5-2.47c0-0.89,0.17-1.72,0.5-2.49c0.33-0.77,0.79-1.44,1.38-2.02    c0.59-0.58,1.27-1.03,2.05-1.36C88.36,39.08,89.19,38.92,90.06,38.92z M93.89,49.15v-3.86c0-0.53-0.1-1.03-0.3-1.49    c-0.2-0.46-0.47-0.87-0.82-1.22s-0.76-0.63-1.22-0.82c-0.46-0.2-0.96-0.3-1.49-0.3c-0.53,0-1.03,0.1-1.51,0.3    c-0.47,0.2-0.89,0.47-1.24,0.82s-0.63,0.76-0.82,1.22c-0.2,0.46-0.3,0.96-0.3,1.49c0,0.53,0.1,1.03,0.3,1.51    c0.2,0.47,0.47,0.89,0.82,1.24c0.35,0.35,0.76,0.63,1.24,0.82c0.47,0.2,0.98,0.3,1.51,0.3H93.89z"/>
		<path class="st0" d="M102.08,36.63c-0.47,0.2-0.89,0.47-1.24,0.82c-0.35,0.35-0.63,0.76-0.82,1.22c-0.2,0.46-0.3,0.96-0.3,1.49    v1.31h5.11v2.53h-5.11v7.67h-2.53V40.17c0-0.89,0.17-1.72,0.5-2.49c0.33-0.77,0.79-1.44,1.38-2.02c0.59-0.58,1.27-1.03,2.05-1.36    c0.78-0.33,1.6-0.5,2.47-0.5h1.25v2.53h-1.25C103.05,36.33,102.55,36.43,102.08,36.63z"/>
		<path class="st0" d="M118.56,38.92v6.37c0,0.87-0.17,1.7-0.5,2.47c-0.33,0.78-0.79,1.46-1.38,2.05c-0.59,0.59-1.26,1.05-2.03,1.38    c-0.77,0.33-1.6,0.5-2.49,0.5c-0.87,0-1.7-0.17-2.47-0.5c-0.78-0.33-1.45-0.79-2.03-1.38c-0.58-0.59-1.03-1.27-1.36-2.05    c-0.33-0.78-0.5-1.6-0.5-2.47v-6.37h2.53v6.37c0,0.53,0.1,1.03,0.3,1.51c0.2,0.47,0.47,0.89,0.82,1.24    c0.35,0.35,0.76,0.63,1.22,0.82c0.46,0.2,0.96,0.3,1.49,0.3s1.03-0.1,1.51-0.3c0.47-0.2,0.88-0.47,1.24-0.82    c0.35-0.35,0.63-0.76,0.82-1.24c0.2-0.47,0.3-0.98,0.3-1.51v-6.37H118.56z"/>
		<path class="st0" d="M129.3,47.19l1.79,1.79l-0.88,0.88c-0.61,0.61-1.3,1.07-2.07,1.39c-0.78,0.32-1.59,0.48-2.44,0.48    c-0.85,0-1.67-0.16-2.44-0.48c-0.78-0.32-1.47-0.79-2.07-1.39c-0.63-0.63-1.09-1.33-1.39-2.12c-0.3-0.79-0.46-1.59-0.46-2.4    c0-0.81,0.15-1.61,0.46-2.39c0.3-0.78,0.77-1.48,1.39-2.1c0.63-0.63,1.33-1.09,2.12-1.41c0.79-0.31,1.59-0.47,2.4-0.47    c0.81,0,1.62,0.16,2.4,0.47c0.79,0.31,1.49,0.78,2.12,1.41l0.88,0.88l-7.08,7.08c0.72,0.36,1.48,0.48,2.29,0.35    c0.8-0.12,1.51-0.49,2.12-1.09L129.3,47.19z M122.96,42.61c-0.76,0.76-1.14,1.67-1.14,2.73c0,0.59,0.13,1.15,0.4,1.68    c0.23-0.23,0.57-0.57,1.04-1.04c0.46-0.46,0.96-0.96,1.48-1.48c0.52-0.52,1.02-1.02,1.51-1.49c0.48-0.47,0.86-0.84,1.12-1.11    c-0.72-0.36-1.48-0.48-2.29-0.37C124.27,41.65,123.57,42.01,122.96,42.61z"/>
		<path class="st0" d="M132.44,42.83c0.33-0.77,0.79-1.44,1.36-2.02c0.58-0.58,1.25-1.03,2.03-1.36c0.78-0.33,1.6-0.5,2.47-0.5    c0.89,0,1.72,0.17,2.49,0.5c0.77,0.33,1.44,0.79,2.03,1.36c0.59,0.58,1.05,1.25,1.38,2.02c0.33,0.77,0.5,1.6,0.5,2.49v6.39h-2.53    v-6.39c0-0.53-0.1-1.03-0.3-1.49c-0.2-0.46-0.47-0.87-0.82-1.22c-0.35-0.35-0.76-0.63-1.24-0.82c-0.47-0.2-0.98-0.3-1.51-0.3    c-0.53,0-1.03,0.1-1.49,0.3c-0.46,0.2-0.87,0.47-1.22,0.82c-0.35,0.35-0.63,0.76-0.82,1.22c-0.2,0.46-0.3,0.96-0.3,1.49v6.39    h-2.53v-6.39C131.94,44.42,132.11,43.59,132.44,42.83z"/>
		<path class="st0" d="M153.2,49.15v2.53h-1.25c-0.87,0-1.7-0.17-2.47-0.5c-0.78-0.33-1.46-0.79-2.05-1.38    c-0.59-0.59-1.05-1.27-1.38-2.05c-0.33-0.78-0.5-1.6-0.5-2.47V33.8h2.53v7.67h5.11v2.53h-5.11v1.28c0,0.53,0.1,1.03,0.3,1.51    c0.2,0.47,0.47,0.89,0.82,1.24c0.35,0.35,0.76,0.63,1.24,0.82c0.47,0.2,0.98,0.3,1.51,0.3H153.2z"/>
		<path class="st0" d="M164.11,47.19l1.79,1.79l-0.88,0.88c-0.61,0.61-1.3,1.07-2.07,1.39c-0.78,0.32-1.59,0.48-2.44,0.48    c-0.85,0-1.67-0.16-2.44-0.48c-0.78-0.32-1.47-0.79-2.07-1.39c-0.63-0.63-1.09-1.33-1.39-2.12c-0.3-0.79-0.46-1.59-0.46-2.4    c0-0.81,0.15-1.61,0.46-2.39c0.3-0.78,0.77-1.48,1.39-2.1c0.63-0.63,1.33-1.09,2.12-1.41c0.79-0.31,1.59-0.47,2.4-0.47    c0.81,0,1.62,0.16,2.4,0.47s1.49,0.78,2.12,1.41l0.88,0.88l-7.08,7.08c0.72,0.36,1.48,0.48,2.29,0.35    c0.8-0.12,1.51-0.49,2.12-1.09L164.11,47.19z M157.77,42.61c-0.76,0.76-1.14,1.67-1.14,2.73c0,0.59,0.13,1.15,0.4,1.68    c0.23-0.23,0.57-0.57,1.04-1.04c0.46-0.46,0.96-0.96,1.48-1.48c0.52-0.52,1.02-1.02,1.51-1.49c0.48-0.47,0.86-0.84,1.12-1.11    c-0.72-0.36-1.48-0.48-2.29-0.37C159.08,41.65,158.38,42.01,157.77,42.61z"/>
		<path class="st0" d="M169.33,51.71v-2.84h2.84v2.84H169.33z"/>
		<path class="st0" d="M176.52,40.79c0.63-0.63,1.33-1.09,2.12-1.41c0.79-0.31,1.59-0.47,2.4-0.47c0.81,0,1.62,0.16,2.4,0.47    c0.79,0.31,1.49,0.78,2.12,1.41l0.88,0.88l-1.76,1.79l-0.91-0.88c-0.38-0.38-0.81-0.66-1.28-0.85c-0.47-0.19-0.96-0.28-1.45-0.28    c-0.49,0-0.98,0.1-1.45,0.28c-0.47,0.19-0.9,0.47-1.28,0.85c-0.38,0.36-0.66,0.78-0.85,1.25c-0.19,0.47-0.28,0.96-0.28,1.45    c0,0.49,0.09,0.98,0.28,1.45c0.19,0.47,0.47,0.9,0.85,1.28c0.76,0.76,1.67,1.14,2.73,1.14c0.51,0,1-0.09,1.48-0.28    c0.47-0.19,0.89-0.47,1.25-0.85l0.91-0.88l1.76,1.79l-0.88,0.88c-0.63,0.63-1.33,1.09-2.12,1.41c-0.79,0.31-1.59,0.47-2.4,0.47    c-0.81,0-1.62-0.16-2.4-0.47c-0.79-0.31-1.49-0.78-2.12-1.41c-0.63-0.63-1.09-1.33-1.39-2.1c-0.3-0.78-0.46-1.58-0.46-2.4    c0-0.82,0.15-1.62,0.46-2.4C175.43,42.12,175.9,41.42,176.52,40.79z"/>
		<path class="st0" d="M187.43,45.34c0-0.89,0.17-1.72,0.5-2.49c0.33-0.77,0.79-1.44,1.36-2.02c0.58-0.58,1.25-1.03,2.03-1.36    c0.78-0.33,1.6-0.5,2.47-0.5c0.89,0,1.72,0.17,2.49,0.5c0.77,0.33,1.44,0.79,2.03,1.36c0.59,0.58,1.05,1.25,1.38,2.02    c0.33,0.77,0.5,1.6,0.5,2.49c0,0.87-0.17,1.7-0.5,2.47c-0.33,0.78-0.79,1.46-1.38,2.05c-0.59,0.59-1.26,1.05-2.03,1.38    c-0.77,0.33-1.6,0.5-2.49,0.5c-0.87,0-1.7-0.17-2.47-0.5c-0.78-0.33-1.45-0.79-2.03-1.38c-0.58-0.59-1.03-1.27-1.36-2.05    C187.6,47.04,187.43,46.21,187.43,45.34z M189.93,45.34c0,0.53,0.1,1.03,0.3,1.51c0.2,0.47,0.47,0.89,0.82,1.24    c0.35,0.35,0.76,0.63,1.24,0.82c0.47,0.2,0.98,0.3,1.51,0.3c0.53,0,1.03-0.1,1.51-0.3c0.47-0.2,0.88-0.47,1.24-0.82    c0.35-0.35,0.63-0.76,0.82-1.24c0.2-0.47,0.3-0.98,0.3-1.51c0-0.53-0.1-1.03-0.3-1.49c-0.2-0.46-0.47-0.87-0.82-1.22    c-0.35-0.35-0.76-0.63-1.24-0.82c-0.47-0.2-0.98-0.3-1.51-0.3c-0.53,0-1.03,0.1-1.51,0.3c-0.47,0.2-0.89,0.47-1.24,0.82    c-0.35,0.35-0.63,0.76-0.82,1.22C190.03,44.31,189.93,44.81,189.93,45.34z"/>
		<path class="st0" d="M217.61,38.92c0.89,0,1.72,0.17,2.49,0.5c0.77,0.33,1.44,0.79,2.03,1.36c0.59,0.58,1.05,1.25,1.38,2.02    c0.33,0.77,0.5,1.6,0.5,2.49v6.39h-2.53v-6.39c0-0.53-0.1-1.03-0.3-1.49c-0.2-0.46-0.47-0.87-0.82-1.22    c-0.35-0.35-0.76-0.63-1.24-0.82c-0.47-0.2-0.98-0.3-1.51-0.3c-0.53,0-1.03,0.1-1.49,0.3c-0.46,0.2-0.87,0.47-1.22,0.82    c-0.35,0.35-0.63,0.76-0.82,1.22c-0.2,0.46-0.3,0.96-0.3,1.49v6.39h-2.53v-6.39c0-0.53-0.1-1.03-0.3-1.49    c-0.2-0.46-0.47-0.87-0.82-1.22c-0.35-0.35-0.76-0.63-1.24-0.82c-0.47-0.2-0.98-0.3-1.51-0.3c-0.53,0-1.03,0.1-1.49,0.3    c-0.46,0.2-0.87,0.47-1.22,0.82s-0.63,0.76-0.82,1.22c-0.2,0.46-0.3,0.96-0.3,1.49v6.39h-2.53v-6.39c0-0.89,0.17-1.72,0.5-2.49    c0.33-0.77,0.79-1.44,1.36-2.02c0.58-0.58,1.25-1.03,2.03-1.36c0.78-0.33,1.6-0.5,2.47-0.5c1.06,0,2.03,0.23,2.91,0.7    c0.88,0.46,1.61,1.09,2.2,1.89c0.59-0.8,1.33-1.43,2.22-1.89C215.6,39.15,216.57,38.92,217.61,38.92z"/>
	</g>
	<g>
		<path class="st1" d="M97.99,65.62c-0.74,0.29-2.23,0.71-3.96,0.71c-1.94,0-3.54-0.5-4.8-1.7c-1.11-1.07-1.79-2.78-1.79-4.78    c0-3.83,2.65-6.63,6.96-6.63c1.49,0,2.67,0.32,3.22,0.59l-0.42,1.35c-0.69-0.32-1.54-0.55-2.84-0.55c-3.13,0-5.17,1.94-5.17,5.16    c0,3.26,1.94,5.18,4.96,5.18c1.09,0,1.83-0.15,2.21-0.34v-3.83h-2.59v-1.33h4.23V65.62z"/>
		<path class="st1" d="M100.45,59.84c0-1.09-0.02-2.02-0.08-2.88h1.47l0.08,1.83h0.06c0.42-1.24,1.45-2.02,2.57-2.02    c0.17,0,0.3,0.02,0.46,0.04v1.58c-0.17-0.04-0.34-0.04-0.57-0.04c-1.18,0-2.02,0.88-2.25,2.13c-0.04,0.23-0.06,0.51-0.06,0.78    v4.92h-1.68V59.84z"/>
		<path class="st1" d="M113.06,63.98c0,0.8,0.04,1.58,0.13,2.21h-1.51l-0.13-1.16h-0.06c-0.51,0.72-1.51,1.37-2.82,1.37    c-1.87,0-2.82-1.31-2.82-2.65c0-2.23,1.98-3.45,5.55-3.43v-0.19c0-0.74-0.21-2.13-2.1-2.12c-0.88,0-1.77,0.25-2.42,0.69    l-0.38-1.12c0.76-0.48,1.89-0.8,3.05-0.8c2.82,0,3.51,1.92,3.51,3.75V63.98z M111.44,61.48c-1.83-0.04-3.91,0.29-3.91,2.08    c0,1.11,0.72,1.6,1.56,1.6c1.22,0,2-0.76,2.27-1.54c0.06-0.19,0.08-0.38,0.08-0.53V61.48z"/>
		<path class="st1" d="M115.77,59.98c0-1.18-0.04-2.13-0.08-3.01h1.49l0.1,1.58h0.04c0.67-1.12,1.77-1.77,3.28-1.77    c2.25,0,3.93,1.89,3.93,4.67c0,3.32-2.04,4.96-4.21,4.96c-1.22,0-2.29-0.53-2.84-1.45h-0.04v5.01h-1.66V59.98z M117.43,62.44    c0,0.25,0.02,0.48,0.08,0.69c0.3,1.16,1.31,1.96,2.52,1.96c1.77,0,2.8-1.45,2.8-3.56c0-1.83-0.97-3.41-2.75-3.41    c-1.14,0-2.23,0.8-2.53,2.06c-0.06,0.21-0.11,0.46-0.11,0.67V62.44z"/>
		<path class="st1" d="M126.62,52.66h1.68v5.77h0.04c0.27-0.48,0.69-0.91,1.2-1.2c0.5-0.29,1.09-0.46,1.72-0.46    c1.24,0,3.22,0.76,3.22,3.93v5.49h-1.68v-5.3c0-1.49-0.55-2.73-2.13-2.73c-1.09,0-1.92,0.76-2.25,1.66    c-0.1,0.25-0.11,0.5-0.11,0.8v5.57h-1.68V52.66z"/>
		<path class="st1" d="M139.06,54.37c0,0.57-0.4,1.03-1.07,1.03c-0.61,0-1.01-0.46-1.01-1.03c0-0.57,0.42-1.05,1.05-1.05    C138.64,53.33,139.06,53.78,139.06,54.37z M137.2,66.19v-9.22h1.68v9.22H137.2z"/>
		<path class="st1" d="M148.23,65.87c-0.44,0.21-1.41,0.53-2.65,0.53c-2.78,0-4.59-1.89-4.59-4.71c0-2.84,1.94-4.92,4.96-4.92    c0.99,0,1.87,0.25,2.33,0.5l-0.38,1.28c-0.4-0.21-1.03-0.44-1.94-0.44c-2.12,0-3.26,1.58-3.26,3.49c0,2.13,1.37,3.45,3.2,3.45    c0.95,0,1.58-0.23,2.06-0.44L148.23,65.87z"/>
		<path class="st1" d="M154.08,64.17c0.74,0.48,1.81,0.84,2.95,0.84c1.7,0,2.69-0.9,2.69-2.19c0-1.18-0.69-1.89-2.42-2.53    c-2.1-0.76-3.39-1.87-3.39-3.66c0-2,1.66-3.49,4.15-3.49c1.3,0,2.27,0.3,2.82,0.63l-0.46,1.35c-0.4-0.25-1.26-0.61-2.42-0.61    c-1.75,0-2.42,1.05-2.42,1.92c0,1.2,0.78,1.79,2.55,2.48c2.17,0.84,3.26,1.89,3.26,3.77c0,1.98-1.45,3.72-4.48,3.72    c-1.24,0-2.59-0.38-3.28-0.84L154.08,64.17z"/>
		<path class="st1" d="M172.1,61.5c0,3.41-2.38,4.9-4.59,4.9c-2.48,0-4.42-1.83-4.42-4.75c0-3.07,2.04-4.88,4.57-4.88    C170.3,56.78,172.1,58.7,172.1,61.5z M164.8,61.6c0,2.02,1.14,3.54,2.78,3.54c1.6,0,2.8-1.51,2.8-3.58c0-1.56-0.78-3.53-2.76-3.53    C165.65,58.03,164.8,59.86,164.8,61.6z"/>
		<path class="st1" d="M174.21,52.66h1.68v13.53h-1.68V52.66z"/>
		<path class="st1" d="M186.43,63.66c0,0.97,0.02,1.81,0.08,2.53h-1.49l-0.1-1.51h-0.04c-0.42,0.74-1.41,1.71-3.05,1.71    c-1.45,0-3.18-0.82-3.18-4.04v-5.39h1.68v5.09c0,1.75,0.55,2.95,2.06,2.95c1.12,0,1.91-0.78,2.21-1.54    c0.09-0.23,0.15-0.53,0.15-0.86v-5.64h1.68V63.66z"/>
		<path class="st1" d="M191.23,54.76v2.21h2.4v1.28h-2.4v4.97c0,1.14,0.32,1.79,1.26,1.79c0.46,0,0.72-0.04,0.97-0.11l0.08,1.28    c-0.32,0.11-0.84,0.23-1.49,0.23c-0.78,0-1.41-0.27-1.81-0.71c-0.46-0.51-0.65-1.33-0.65-2.42v-5.03h-1.43v-1.28h1.43v-1.72    L191.23,54.76z"/>
		<path class="st1" d="M197.39,54.37c0,0.57-0.4,1.03-1.07,1.03c-0.61,0-1.01-0.46-1.01-1.03c0-0.57,0.42-1.05,1.05-1.05    C196.97,53.33,197.39,53.78,197.39,54.37z M195.52,66.19v-9.22h1.68v9.22H195.52z"/>
		<path class="st1" d="M208.33,61.5c0,3.41-2.38,4.9-4.59,4.9c-2.48,0-4.42-1.83-4.42-4.75c0-3.07,2.04-4.88,4.57-4.88    C206.54,56.78,208.33,58.7,208.33,61.5z M201.03,61.6c0,2.02,1.14,3.54,2.78,3.54c1.6,0,2.8-1.51,2.8-3.58    c0-1.56-0.78-3.53-2.76-3.53C201.89,58.03,201.03,59.86,201.03,61.6z"/>
		<path class="st1" d="M210.45,59.46c0-0.97-0.02-1.73-0.08-2.5h1.49l0.09,1.52h0.04c0.46-0.86,1.52-1.71,3.05-1.71    c1.28,0,3.26,0.76,3.26,3.93v5.49h-1.68v-5.32c0-1.49-0.55-2.73-2.13-2.73c-1.09,0-1.94,0.78-2.25,1.72    c-0.08,0.21-0.11,0.5-0.11,0.78v5.55h-1.68V59.46z"/>
		<path class="st1" d="M220.8,64.49c0.51,0.31,1.39,0.65,2.23,0.65c1.2,0,1.77-0.59,1.77-1.37c0-0.8-0.48-1.22-1.7-1.68    c-1.68-0.61-2.46-1.51-2.46-2.61c0-1.49,1.22-2.71,3.18-2.71c0.93,0,1.75,0.25,2.25,0.57l-0.4,1.22    c-0.36-0.23-1.03-0.55-1.89-0.55c-0.99,0-1.53,0.57-1.53,1.26c0,0.76,0.53,1.1,1.73,1.58c1.58,0.59,2.42,1.39,2.42,2.76    c0,1.64-1.28,2.78-3.43,2.78c-1.01,0-1.94-0.27-2.59-0.65L220.8,64.49z"/>
	</g>
	<path class="st0" d="M257.46,7.49c-12.64-0.39-11.79,10.96-17.05,18.37c-2.17,3.04-4.45,4.03-5.66,7.04   c-2.16,0.31-2.81,2.04-4.04,3.21c0.15,3.5-0.31,7.6,4.33,7.11c-0.08-0.15-0.17-0.28-0.27-0.41l1.2,0.36   c0.48,0.01,0.85,0.14,1.14,0.34l-1.14-0.34c-0.18,0-0.37,0.01-0.59,0.05c1.11,0.88,2.74,0.63,3.79-0.11   c-2.13,5.92-7.23,11.91-6.64,21.53c-0.38,1.43-3.12,0.62-3.74,1.82c0.94,2.39,3.9,0.5,6.57,0.85c2.32-3.27,1.32-9.69,4.13-12.51   c1.19,4.12,1.48,4.36,2.59,6.47c-0.25,0.33-0.61,0.54-1.01,0.72c0.82,1.75,4.52,2.14,6.22,0.86c-2.47-3.94-5.47-10.6-2.51-16.11   c0.07-0.71,1.51-0.14,1.7-0.74c0.36-4.91,6.27-4.56,6.98-9.14c2.91,0.81,6.03-0.57,5.07-3.24C273.63,31.95,272.91,7.97,257.46,7.49   z M241.91,37.24c0.07,0.86-0.52,1.08-0.64,1.74c-0.19-1.64-0.5,0.89-1.37,0.04c-0.5,0.69-0.72,2.55-2.37,1.44   c0.59,0.67-0.96,0.53-0.9,1.47l-1.4-0.79c-1.16-1.61-3.08-2.42-3.33-5c0.64,0.5,0.85,1.46,1.44,2.02c0.59-0.31-0.53-1.78-0.76-2.39   c0.61-0.68,1.17,0.26,1.74,0.64c0.65-0.05-0.26-1.6-0.71-0.67c0.17-0.28,0.34-0.57,0.32-1.04c2.73,1.55,2.49,1.8,1-1.06   c1.07-0.2,1.42,0.39,1.75,0.98c0.23-0.35-0.42-1.38-0.4-2.05c1.01-0.01,1.3,0.75,1.76,1.33c0.26-0.24,0.49-1.16-0.38-1.37   c0.77-1.06,2.11-1.58,2.68-2.83c1.55,2.02,0.8,6.47,3.64,7.13C243.79,37.98,242.67,37.37,241.91,37.24z M259.89,32.36   c-4.88,1.73-11.33,2.73-14.7,3.85c-1.36-3.97-3.83-7.4-0.98-10.65c-1.11,0.52-1.46,3.52-2.68,2.83c1.89-0.92,2.45-6.19,3.99-5.28   c0.06-6.34,4.07-11.76,10.65-13.03c-11.04,0.16-9.82,13.71-15.69,17.65c4.68-7.24,4.86-18.97,16.34-19.04   c3.92-0.03,6.75,1.7,8.36,3.21C272.26,18.61,266.99,29.84,259.89,32.36z"/>
	<g>
		<path class="st2" d="M235.97,43.17l1.14,0.34C236.81,43.31,236.45,43.18,235.97,43.17z"/>
		<path class="st3" d="M265.18,11.9c-1.6-1.51-4.44-3.23-8.36-3.21c-11.49,0.07-11.67,11.8-16.34,19.04    c5.88-3.94,4.65-17.49,15.69-17.65c-6.58,1.27-10.59,6.69-10.65,13.03c-1.53-0.91-2.09,4.35-3.99,5.28    c1.22,0.69,1.56-2.31,2.68-2.83c-2.85,3.25-0.38,6.67,0.98,10.65c3.37-1.13,9.82-2.12,14.7-3.85    C266.99,29.84,272.26,18.61,265.18,11.9z"/>
		<path class="st2" d="M240.32,29.71c-0.57,1.25-1.91,1.77-2.68,2.83c0.87,0.21,0.64,1.13,0.38,1.37c-0.46-0.58-0.75-1.34-1.76-1.33    c-0.02,0.68,0.63,1.7,0.4,2.05c-0.33-0.6-0.67-1.18-1.75-0.98c1.48,2.86,1.72,2.61-1,1.06c0.03,0.47-0.14,0.76-0.32,1.04    c0.45-0.93,1.36,0.62,0.71,0.67c-0.57-0.38-1.13-1.32-1.74-0.64c0.23,0.61,1.35,2.07,0.76,2.39c-0.59-0.56-0.79-1.53-1.44-2.02    c0.25,2.58,2.17,3.38,3.33,5l1.4,0.79c-0.06-0.94,1.5-0.8,0.9-1.47c1.65,1.11,1.87-0.75,2.37-1.44c0.88,0.85,1.18-1.68,1.37-0.04    c0.13-0.66,0.72-0.88,0.64-1.74c0.77,0.13,1.88,0.74,2.05-0.4C241.12,36.18,241.87,31.73,240.32,29.71z"/>
	</g>
</g>
</svg>